<svg width="24" height="24" viewBox="0 0 24 24" fill="none" xmlns="http://www.w3.org/2000/svg">
<g id="Group">
<g id="Group_2">
<path id="Vector" d="M23.3838 6.62854L13.357 0.379265C12.5309 -0.130859 11.4665 -0.125643 10.6453 0.390218L0.608163 6.63376C-0.0150927 7.02548 -0.187308 7.82509 0.222729 8.41971C0.633312 9.01433 1.47088 9.17916 2.09468 8.78692L12.0105 2.61849L21.9142 8.79213C22.1417 8.93244 22.3959 8.99868 22.6474 8.99868C23.0913 8.99868 23.5243 8.79161 23.7829 8.41084C24.1886 7.81309 24.0092 7.01609 23.3838 6.62854Z" fill="#626687"/>
<path id="Vector_2" d="M20.2107 14.7531C20.1341 14.3031 19.7525 13.9702 19.3075 13.9702H18.7961L18.6017 11.8962C18.3942 9.67811 16.5985 7.99997 14.4248 7.99997H9.5761C7.4019 7.99997 5.60672 9.67863 5.39869 11.8962L5.20486 13.9702H4.69289C4.2474 13.9702 3.86634 14.3031 3.78871 14.7531L3.02761 19.1768C2.93323 19.7251 3.08444 20.2895 3.43353 20.715C3.76943 21.1249 4.26414 21.3694 4.78169 21.3876V22.1221C4.78169 23.1619 5.59454 24 6.60985 24H7.18727C8.20156 24 9.02659 23.1619 9.02659 22.1221V21.3995H14.9794V22.1205C14.9794 23.1609 15.7978 24 16.8121 24H17.39C18.4043 24 19.2238 23.1609 19.2238 22.1205V21.3876C19.7413 21.3694 20.233 21.127 20.5679 20.7176C20.917 20.291 21.0662 19.7297 20.9728 19.1804L20.2107 14.7531ZM6.39065 19.6933C5.53467 19.6933 4.84055 18.9822 4.84055 18.1036C4.84055 17.225 5.53467 16.5134 6.39065 16.5134C7.24714 16.5134 7.94177 17.2245 7.94177 18.1036C7.94177 18.9822 7.24714 19.6933 6.39065 19.6933ZM6.77729 13.9702L6.9564 12.0569C7.0868 10.6659 8.21272 9.61828 9.5761 9.61828H9.85568V10.2196C9.85568 10.7414 10.2601 11.157 10.7685 11.157H13.2324C13.7408 11.157 14.1523 10.7414 14.1523 10.2196V9.6188H14.4248C15.7882 9.6188 16.9141 10.6665 17.044 12.0575L17.2236 13.9707L6.77729 13.9702ZM17.6082 19.6933C16.7522 19.6933 16.0581 18.9822 16.0581 18.1036C16.0581 17.225 16.7522 16.5134 17.6082 16.5134C18.4647 16.5134 19.1593 17.2245 19.1593 18.1036C19.1593 18.9822 18.4647 19.6933 17.6082 19.6933Z" fill="#626687"/>
</g>
</g>
</svg>
