<svg width="24" height="24" viewBox="0 0 24 24" fill="none" xmlns="http://www.w3.org/2000/svg">
<g id="Icons">
<path id="Vector" d="M8.38436 2.4792C8.90946 2.32088 9.47295 2.34718 9.98101 2.55373C10.4891 2.76027 10.9111 3.1346 11.1768 3.6144L11.2668 3.7932L12.06 5.5584C12.3011 6.09418 12.3793 6.68902 12.285 7.26892C12.1907 7.84883 11.928 8.38822 11.5296 8.82L11.3712 8.9784L10.1184 10.146C9.89276 10.3596 10.062 11.1864 10.8792 12.6C11.6124 13.872 12.2112 14.466 12.504 14.4984H12.5556L12.6192 14.4864L15.0792 13.734C15.4098 13.6326 15.7626 13.6286 16.0954 13.7224C16.4283 13.8163 16.727 14.004 16.956 14.2632L17.0664 14.4012L18.6936 16.6572C19.0129 17.0993 19.1721 17.6369 19.1451 18.1815C19.118 18.7262 18.9063 19.2454 18.5448 19.6536L18.3984 19.8048L17.7468 20.4216C17.1627 20.9747 16.4321 21.3485 15.6418 21.4984C14.8516 21.6484 14.0348 21.5683 13.2888 21.2676C10.9668 20.3316 8.85716 18.1932 6.94076 14.874C5.02076 11.5464 4.22276 8.646 4.57916 6.162C4.68712 5.41098 4.9965 4.70324 5.47443 4.11395C5.95237 3.52467 6.58101 3.07586 7.29356 2.8152L7.52516 2.7384L8.38436 2.4792Z" fill="white"/>
</g>
</svg>
