<svg width="25" height="22" viewBox="0 0 25 22" fill="none" xmlns="http://www.w3.org/2000/svg">
<g id="Group">
<g id="Group_2">
<g id="Group_3">
<path id="Vector" d="M23.2884 4.00006H18.9324C18.2631 4.00006 17.7207 4.53671 17.7207 5.19962V8.31356H14.5759C13.9064 8.31356 13.3641 8.85003 13.3641 9.51298V12.6271H10.2192C9.5497 12.6271 9.00752 13.1644 9.00752 13.8266V17.0907H5.71171C5.39012 17.0907 5.08195 17.217 4.85482 17.4417C4.6275 17.6665 4.5 17.973 4.5 18.2902L4.50039 20.7999C4.50039 21.4634 5.04297 22.0001 5.71206 22.0001H23.2884C23.9579 22.0001 24.5 21.4634 24.5 20.7999V5.19957C24.5001 4.53671 23.9579 4.00006 23.2884 4.00006Z" fill="#626687"/>
<path id="Vector_2" d="M17.264 0.245361C16.9425 -0.0760555 16.4158 -0.0822327 16.0863 0.230486C10.7431 5.30554 5.65982 10.2624 0.744094 15.055C0.587683 15.2075 0.5 15.4146 0.5 15.6297V21.1877C0.5 21.6356 0.87278 22.0001 1.33294 22.0001C1.79264 22.0001 2.16608 21.6358 2.16608 21.1877V15.9657C7.00203 11.2504 12.0017 6.37801 17.2485 1.39374C17.5778 1.08107 17.5845 0.566579 17.264 0.245361Z" fill="#626687"/>
</g>
</g>
</g>
</svg>
