<svg width="24" height="24" viewBox="0 0 24 24" fill="none" xmlns="http://www.w3.org/2000/svg">
<g id="Icons">
<path id="Vector" fill-rule="evenodd" clip-rule="evenodd" d="M18.3323 1.95679C18.8813 1.95679 19.3272 2.40489 19.3272 2.95666C19.3272 3.50843 18.8813 3.95653 18.3323 3.95653C17.7834 3.95653 17.3375 3.50843 17.3375 2.95666C17.3392 2.40489 17.7834 1.95679 18.3323 1.95679ZM18.5985 10.6647C19.4569 11.9522 20.5432 12.3468 21.9539 11.4756C22.0005 11.9605 22.0121 12.4554 21.9872 12.9571C21.7094 18.5015 17.0131 22.7702 11.4968 22.491C5.98213 22.2101 1.73508 17.4899 2.01289 11.9472C2.28904 6.40271 7.14828 2.08721 12.663 2.36643C12.1739 3.9047 12.5881 5.27075 13.8324 5.73557C12.7045 9.37724 15.2232 11.7599 18.5985 10.6647ZM6.99523 9.94741C7.82202 9.94741 8.49077 10.6212 8.49077 11.4506C8.49077 12.2799 7.82035 12.9537 6.99523 12.9537C6.16845 12.9537 5.4997 12.2799 5.4997 11.4506C5.4997 10.6212 6.17011 9.94741 6.99523 9.94741ZM11.7064 11.8635C12.1822 11.8635 12.5681 12.2515 12.5681 12.7297C12.5681 13.2079 12.1822 13.5958 11.7064 13.5958C11.2306 13.5958 10.8447 13.2079 10.8447 12.7297C10.843 12.2515 11.229 11.8635 11.7064 11.8635ZM7.96675 15.4317C8.54733 15.4317 9.01811 15.9048 9.01811 16.4884C9.01811 17.0719 8.54733 17.5451 7.96675 17.5451C7.38617 17.5451 6.91538 17.0719 6.91538 16.4884C6.91538 15.9032 7.38617 15.4317 7.96675 15.4317ZM10.2325 7.34573C10.6883 7.34573 11.056 7.71692 11.056 8.17338C11.056 8.63152 10.6867 9.00104 10.2325 9.00104C9.77669 9.00104 9.40905 8.62985 9.40905 8.17338C9.40905 7.71692 9.77836 7.34573 10.2325 7.34573ZM14.7075 15.8012C15.471 15.8012 16.0882 16.4232 16.0882 17.189C16.0882 17.9564 15.4694 18.5767 14.7075 18.5767C13.9439 18.5767 13.3267 17.9547 13.3267 17.189C13.3267 16.4232 13.9456 15.8012 14.7075 15.8012ZM17.6154 5.81917C18.1277 5.81917 18.5436 6.23718 18.5436 6.75216C18.5436 7.26715 18.1277 7.68515 17.6154 7.68515C17.103 7.68515 16.6871 7.26715 16.6871 6.75216C16.6871 6.23718 17.103 5.81917 17.6154 5.81917Z" fill="#0B9567"/>
</g>
</svg>
