<svg width="24" height="24" viewBox="0 0 24 24" fill="none" xmlns="http://www.w3.org/2000/svg">
<g id="Icons">
<path id="Vector" d="M22.9419 8.89802C22.8727 8.6944 22.7454 8.51548 22.5758 8.38335C22.4061 8.25122 22.2014 8.17167 21.9871 8.15452L15.7159 7.65628L13.0022 1.64998C12.9158 1.45653 12.7752 1.29222 12.5974 1.17688C12.4197 1.06155 12.2124 1.00012 12.0004 1C11.7885 0.999884 11.5811 1.06109 11.4033 1.17623C11.2254 1.29137 11.0846 1.45552 10.998 1.64888L8.28427 7.65628L2.01313 8.15452C1.80243 8.17121 1.601 8.24824 1.43294 8.37639C1.26488 8.50455 1.1373 8.6784 1.06547 8.87715C0.993642 9.07591 0.9806 9.29114 1.02791 9.49711C1.07522 9.70308 1.18087 9.89106 1.33223 10.0386L5.96656 14.5557L4.32755 21.6519C4.27778 21.8667 4.29373 22.0915 4.37333 22.2971C4.45293 22.5028 4.5925 22.6797 4.77393 22.8051C4.95537 22.9304 5.17028 22.9983 5.3908 23C5.61131 23.0016 5.82724 22.937 6.01056 22.8145L12.0001 18.822L17.9896 22.8145C18.177 22.9389 18.398 23.0029 18.6228 22.998C18.8477 22.993 19.0656 22.9194 19.2474 22.7869C19.4291 22.6544 19.5659 22.4695 19.6394 22.2569C19.7129 22.0444 19.7195 21.8144 19.6583 21.598L17.6464 14.559L22.6361 10.0694C22.9628 9.7746 23.0827 9.31486 22.9419 8.89802Z" fill="#F59E0B"/>
</g>
</svg>
