<svg width="117" height="36" viewBox="0 0 117 36" fill="none" xmlns="http://www.w3.org/2000/svg">
<g id="Logo">
<path id="Rectangle 8" d="M0 4C0 1.79086 1.79086 0 4 0H28C30.2091 0 32 1.79086 32 4V8C32 21.2548 21.2548 32 8 32H4C1.79086 32 0 30.2091 0 28V4Z" fill="#F59E0B"/>
<path id="Rectangle 9" d="M4 8C4 5.79086 5.79086 4 8 4H32C34.2091 4 36 5.79086 36 8V12C36 25.2548 25.2548 36 12 36H8C5.79086 36 4 34.2091 4 32V8Z" fill="#4BE4C9"/>
<g id="Hounter">
<path d="M55.952 26V14.8H59.408V26H55.952ZM49.28 26V14.8H52.736V26H49.28ZM50.576 21.92L50.592 18.912H57.904V21.92H50.576Z" fill="#1B1C57"/>
<path d="M65.9835 26.16C65.0555 26.16 64.2289 25.968 63.5035 25.584C62.7782 25.2 62.2075 24.6774 61.7915 24.016C61.3755 23.344 61.1675 22.576 61.1675 21.712C61.1675 20.848 61.3755 20.0854 61.7915 19.424C62.2075 18.752 62.7782 18.224 63.5035 17.84C64.2289 17.456 65.0555 17.264 65.9835 17.264C66.9115 17.264 67.7329 17.456 68.4475 17.84C69.1729 18.224 69.7382 18.752 70.1435 19.424C70.5595 20.0854 70.7675 20.848 70.7675 21.712C70.7675 22.576 70.5595 23.344 70.1435 24.016C69.7382 24.6774 69.1729 25.2 68.4475 25.584C67.7329 25.968 66.9115 26.16 65.9835 26.16ZM65.9835 23.44C66.2715 23.44 66.5275 23.3654 66.7515 23.216C66.9862 23.0667 67.1675 22.864 67.2955 22.608C67.4235 22.3414 67.4875 22.0427 67.4875 21.712C67.4875 21.3707 67.4235 21.072 67.2955 20.816C67.1675 20.5494 66.9862 20.3414 66.7515 20.192C66.5275 20.0427 66.2715 19.9681 65.9835 19.9681C65.6849 19.9681 65.4182 20.0427 65.1835 20.192C64.9595 20.3414 64.7782 20.5494 64.6395 20.816C64.5115 21.072 64.4475 21.3707 64.4475 21.712C64.4475 22.0427 64.5115 22.3414 64.6395 22.608C64.7782 22.864 64.9595 23.0667 65.1835 23.216C65.4182 23.3654 65.6849 23.44 65.9835 23.44Z" fill="#1B1C57"/>
<path d="M75.234 26.1761C74.5834 26.1761 74.034 26.0427 73.586 25.776C73.138 25.5094 72.7967 25.12 72.562 24.608C72.3274 24.0854 72.21 23.456 72.21 22.72V17.44H75.458V22.448C75.458 22.6827 75.4954 22.88 75.57 23.04C75.6554 23.2 75.7727 23.3227 75.922 23.408C76.0714 23.4934 76.2527 23.536 76.466 23.536C76.626 23.536 76.77 23.5147 76.898 23.472C77.0367 23.4187 77.154 23.344 77.25 23.248C77.346 23.1521 77.4207 23.0454 77.474 22.928C77.5274 22.8 77.554 22.6667 77.554 22.528V17.44H80.802V26H77.826L77.634 24.272L78.242 24.08C78.1247 24.4854 77.9167 24.8481 77.618 25.168C77.33 25.4774 76.978 25.7227 76.562 25.904C76.146 26.0854 75.7034 26.1761 75.234 26.1761Z" fill="#1B1C57"/>
<path d="M83.0732 26V17.44H86.0812L86.2412 19.168L85.5532 19.36C85.6705 18.9547 85.8785 18.5974 86.1772 18.288C86.4865 17.968 86.8545 17.7174 87.2812 17.536C87.7078 17.3547 88.1612 17.264 88.6412 17.264C89.2812 17.264 89.8252 17.3974 90.2732 17.664C90.7212 17.9307 91.0572 18.3254 91.2812 18.848C91.5158 19.36 91.6332 19.984 91.6332 20.72V26H88.3852V20.992C88.3852 20.7574 88.3478 20.56 88.2732 20.4C88.1985 20.24 88.0865 20.1174 87.9372 20.032C87.7878 19.9467 87.6118 19.904 87.4092 19.904C87.2492 19.904 87.0998 19.9307 86.9612 19.984C86.8332 20.0267 86.7212 20.096 86.6252 20.192C86.5292 20.288 86.4545 20.3947 86.4012 20.512C86.3478 20.6294 86.3212 20.7627 86.3212 20.912V26H84.7052C84.2998 26 83.9585 26 83.6812 26C83.4145 26 83.2118 26 83.0732 26Z" fill="#1B1C57"/>
<path d="M94.1618 26V15.28H97.4098V26H94.1618ZM92.8338 20.16V17.44H98.8178V20.16H92.8338Z" fill="#1B1C57"/>
<path d="M104.327 26.16C103.335 26.16 102.481 25.968 101.767 25.584C101.052 25.2 100.503 24.6774 100.119 24.016C99.7345 23.344 99.5425 22.576 99.5425 21.712C99.5425 21.072 99.6492 20.48 99.8625 19.936C100.076 19.392 100.375 18.9227 100.759 18.528C101.153 18.1227 101.612 17.8134 102.135 17.6C102.668 17.376 103.249 17.264 103.879 17.264C104.508 17.264 105.079 17.376 105.591 17.6C106.113 17.8134 106.561 18.1227 106.935 18.528C107.308 18.9227 107.591 19.392 107.783 19.936C107.985 20.48 108.076 21.072 108.055 21.712L108.039 22.384H101.335L100.967 20.864H105.463L105.159 21.184V20.896C105.159 20.6934 105.105 20.5174 104.999 20.368C104.903 20.208 104.764 20.0854 104.583 20C104.401 19.9147 104.188 19.872 103.943 19.872C103.633 19.872 103.372 19.936 103.159 20.064C102.945 20.192 102.78 20.3734 102.663 20.608C102.556 20.8427 102.503 21.1254 102.503 21.456C102.503 21.84 102.583 22.176 102.743 22.464C102.913 22.752 103.159 22.976 103.479 23.136C103.809 23.296 104.215 23.376 104.695 23.376C105.015 23.376 105.287 23.3387 105.511 23.264C105.745 23.1787 105.991 23.0454 106.247 22.864L107.735 24.96C107.34 25.2694 106.951 25.5094 106.567 25.68C106.193 25.8507 105.82 25.9734 105.447 26.048C105.084 26.1227 104.711 26.16 104.327 26.16Z" fill="#1B1C57"/>
<path d="M109.558 26V17.44H112.566L112.758 20.288L112.038 19.84C112.176 19.3494 112.395 18.912 112.694 18.528C112.992 18.1334 113.35 17.824 113.766 17.6C114.192 17.376 114.646 17.264 115.126 17.264C115.318 17.264 115.499 17.28 115.67 17.312C115.84 17.3334 116.006 17.3654 116.166 17.408L115.27 21.008C115.163 20.9334 114.992 20.864 114.758 20.8C114.534 20.736 114.288 20.704 114.022 20.704C113.83 20.704 113.654 20.736 113.494 20.8C113.344 20.8534 113.216 20.9387 113.11 21.056C113.014 21.1734 112.939 21.312 112.886 21.472C112.832 21.6321 112.806 21.8187 112.806 22.032V26H109.558Z" fill="#1B1C57"/>
</g>
</g>
</svg>
