<svg width="32" height="32" viewBox="0 0 32 32" fill="none" xmlns="http://www.w3.org/2000/svg">
<g id="Icons/Social/PIN">
<path id="Vector" d="M16.0036 0C7.16589 0 0 7.16268 0 15.9964C0 22.545 3.94374 28.1724 9.58071 30.6503C9.53784 29.5362 9.57357 28.1938 9.85935 26.9797C10.1666 25.68 11.917 18.2601 11.917 18.2601C11.917 18.2601 11.4025 17.239 11.4025 15.7322C11.4025 13.3613 12.7743 11.5903 14.489 11.5903C15.9464 11.5903 16.6467 12.6829 16.6467 13.9897C16.6467 15.4537 15.7106 17.6389 15.232 19.667C14.8319 21.3667 16.0822 22.745 17.7611 22.745C20.7904 22.745 22.8337 18.853 22.8337 14.2397C22.8337 10.7333 20.4689 8.11248 16.175 8.11248C11.324 8.11248 8.29471 11.7331 8.29471 15.7751C8.29471 17.1676 8.7091 18.1531 9.35209 18.9101C9.645 19.26 9.68787 19.4028 9.58071 19.8027C9.50212 20.0955 9.33066 20.8025 9.25206 21.0882C9.1449 21.4953 8.81626 21.6381 8.45189 21.4881C6.21567 20.5739 5.17258 18.1317 5.17258 15.3751C5.17258 10.8333 9.00915 5.38452 16.6109 5.38452C22.7193 5.38452 26.7417 9.80495 26.7417 14.5468C26.7417 20.8239 23.2481 25.5086 18.104 25.5086C16.3752 25.5086 14.7533 24.5731 14.196 23.5162C14.196 23.5162 13.2673 27.201 13.0672 27.9152C12.7314 29.1507 12.067 30.379 11.4597 31.343C12.9328 31.7773 14.4606 31.9987 15.9964 32C24.8341 32 32 24.8372 32 16.0036C32 7.16982 24.8413 0 16.0036 0Z" fill="#1B1C57"/>
</g>
</svg>
