<svg width="32" height="32" viewBox="0 0 32 32" fill="none" xmlns="http://www.w3.org/2000/svg">
<g id="Icons/Social/TW">
<path id="Vector" d="M28 8.3698C27.0997 8.77727 26.1472 9.04573 25.1724 9.16667C26.1968 8.54187 26.9672 7.54926 27.339 6.37501C26.3705 6.9649 25.3127 7.3788 24.2109 7.59897C23.7471 7.09247 23.189 6.68954 22.5709 6.41467C21.9529 6.13979 21.2875 5.99871 20.6155 6.00001C17.8944 6.00001 15.6925 8.26042 15.6925 11.0469C15.6905 11.4345 15.7332 11.8209 15.8195 12.1979C13.8683 12.1026 11.9577 11.5842 10.21 10.6757C8.46221 9.76715 6.91574 8.48863 5.66949 6.92188C5.23228 7.68965 5.00106 8.56566 5 9.45834C5 11.2083 5.8765 12.7552 7.2 13.6615C6.41586 13.6421 5.64779 13.4259 4.961 13.0313V13.0938C4.961 15.5417 6.661 17.5781 8.911 18.0417C8.48789 18.1591 8.05188 18.2187 7.614 18.2188C7.30329 18.2193 6.99328 18.1879 6.6885 18.125C7.314 20.1302 9.1345 21.5886 11.291 21.6302C9.53868 23.0369 7.3873 23.7973 5.175 23.7917C4.78231 23.7911 4.38998 23.7667 4 23.7187C6.25059 25.2157 8.86671 26.0076 11.537 25.9999C20.605 25.9999 25.559 18.3072 25.559 11.6354C25.559 11.4167 25.5534 11.1979 25.5434 10.9844C26.5051 10.2719 27.3368 9.38653 28 8.3698Z" fill="#1B1C57"/>
</g>
</svg>
