<svg width="24" height="24" viewBox="0 0 24 24" fill="none" xmlns="http://www.w3.org/2000/svg">
<g id="Icons">
<path id="Vector" d="M18.9982 10.1353C18.9987 9.87047 18.9175 9.61386 18.7687 9.40997C18.6849 9.29522 18.5821 9.20036 18.466 9.13083C18.3499 9.06131 18.2229 9.01847 18.0922 9.00479C17.9615 8.9911 17.8297 9.00683 17.7044 9.05108C17.5791 9.09533 17.4626 9.16722 17.3618 9.26265L12.0137 14.3397L6.65557 9.44397C6.5535 9.34983 6.43607 9.27953 6.31001 9.23711C6.18395 9.19469 6.05175 9.18099 5.92101 9.19679C5.79027 9.21258 5.66357 9.25757 5.54819 9.32916C5.43281 9.40075 5.33103 9.49754 5.24869 9.61396C5.15785 9.73121 5.08934 9.86853 5.04744 10.0173C5.00554 10.166 4.99117 10.323 5.00522 10.4784C5.01928 10.6337 5.06145 10.7841 5.12911 10.9201C5.19676 11.0561 5.28842 11.1747 5.39835 11.2685L11.3851 16.7422C11.5636 16.9089 11.7876 17 12.0187 17C12.2498 17 12.4737 16.9089 12.6523 16.7422L18.639 11.0759C18.7597 10.9622 18.8552 10.8178 18.9176 10.6543C18.98 10.4909 19.0076 10.3131 18.9982 10.1353Z" fill="#888B97"/>
</g>
</svg>
