<svg width="16" height="16" viewBox="0 0 16 16" fill="none" xmlns="http://www.w3.org/2000/svg">
<g id="Icons">
<path id="Vector" d="M13.0328 7.33124C12.7295 6.64852 12.2885 6.03574 11.7375 5.53124L11.2828 5.11406C11.2674 5.10028 11.2488 5.0905 11.2287 5.08558C11.2086 5.08067 11.1876 5.08076 11.1675 5.08585C11.1475 5.09094 11.129 5.10087 11.1137 5.11478C11.0984 5.12869 11.0867 5.14615 11.0797 5.16562L10.8766 5.74843C10.75 6.11406 10.5172 6.48749 10.1875 6.85468C10.1656 6.87812 10.1406 6.88437 10.1234 6.88593C10.1063 6.88749 10.0797 6.88437 10.0562 6.86249C10.0344 6.84374 10.0234 6.81562 10.025 6.78749C10.0828 5.84687 9.80156 4.78593 9.18594 3.63124C8.67656 2.67187 7.96875 1.92343 7.08437 1.40156L6.43906 1.02187C6.35469 0.971869 6.24688 1.03749 6.25156 1.13593L6.28594 1.88593C6.30937 2.39843 6.25 2.85156 6.10938 3.22812C5.9375 3.68906 5.69062 4.11718 5.375 4.50156C5.15535 4.76869 4.90639 5.0103 4.63281 5.22187C3.97391 5.72838 3.43815 6.37739 3.06562 7.12031C2.69402 7.8697 2.50045 8.69477 2.5 9.53124C2.5 10.2687 2.64531 10.9828 2.93281 11.6562C3.21042 12.3046 3.61103 12.8931 4.1125 13.3891C4.61875 13.8891 5.20625 14.2828 5.86094 14.5562C6.53906 14.8406 7.25781 14.9844 8 14.9844C8.74219 14.9844 9.46094 14.8406 10.1391 14.5578C10.7921 14.286 11.386 13.8895 11.8875 13.3906C12.3938 12.8906 12.7906 12.3062 13.0672 11.6578C13.3543 10.9862 13.5015 10.2632 13.5 9.53281C13.5 8.77031 13.3438 8.02968 13.0328 7.33124Z" fill="#EF4444"/>
</g>
</svg>
