<svg width="16" height="16" viewBox="0 0 16 16" fill="none" xmlns="http://www.w3.org/2000/svg">
<g id="Icons">
<path id="Vector" d="M12.6655 6.75684C12.6658 6.58031 12.6117 6.40924 12.5125 6.27331C12.4567 6.19681 12.3881 6.13357 12.3107 6.08722C12.2333 6.04087 12.1486 6.01231 12.0615 6.00319C11.9744 5.99407 11.8865 6.00456 11.803 6.03405C11.7194 6.06355 11.6418 6.11148 11.5746 6.1751L8.00916 9.55978L4.43709 6.29598C4.36904 6.23322 4.29075 6.18636 4.20671 6.15808C4.12267 6.1298 4.03454 6.12066 3.94738 6.13119C3.86022 6.14172 3.77576 6.17171 3.69884 6.21944C3.62192 6.26717 3.55406 6.33169 3.49916 6.40931C3.43861 6.48747 3.39293 6.57902 3.365 6.67819C3.33707 6.77736 3.32749 6.88201 3.33686 6.98559C3.34623 7.08916 3.37434 7.18942 3.41945 7.28007C3.46455 7.37072 3.52566 7.4498 3.59894 7.51235L7.59009 11.1615C7.70912 11.2726 7.85841 11.3333 8.01249 11.3333C8.16656 11.3333 8.31586 11.2726 8.43489 11.1615L12.426 7.38391C12.5065 7.30812 12.5702 7.21185 12.6118 7.10289C12.6534 6.99394 12.6718 6.87538 12.6655 6.75684Z" fill="white"/>
</g>
</svg>
