<svg width="24" height="24" viewBox="0 0 24 24" fill="none" xmlns="http://www.w3.org/2000/svg">
<g id="Icons/Social/INST">
<g id="Vector">
<path d="M16.9998 1.99983C18.3248 2.00378 19.5944 2.53187 20.5312 3.46877C21.4682 4.40567 21.9963 5.67523 22.0002 7.00019V16.9999C21.9963 18.3249 21.4682 19.5944 20.5312 20.5313C19.5944 21.4682 18.3248 21.9962 16.9998 22.0002H7.00019C5.67523 21.9962 4.40566 21.4682 3.46877 20.5313C2.53187 19.5944 2.00378 18.3249 1.99983 16.9999V7.00019C2.00378 5.67523 2.53187 4.40567 3.46877 3.46877C4.40566 2.53187 5.67523 2.00378 7.00019 1.99983H16.9998ZM16.9998 0H7.00019C3.15 0 0 3.15 0 7.00019V16.9999C0 20.85 3.15 24 7.00019 24H16.9998C20.8501 24 24 20.85 24 16.9999V7.00019C24 3.15 20.8501 0 16.9998 0Z" fill="#274C5B"/>
<path d="M18.4993 7.00059C18.2026 7.00059 17.9126 6.91261 17.6659 6.74779C17.4194 6.58297 17.2271 6.3487 17.1136 6.07461C17.0001 5.80051 16.9703 5.49892 17.0282 5.20795C17.0861 4.91697 17.2289 4.64969 17.4387 4.43992C17.6485 4.23015 17.9157 4.08727 18.2067 4.02939C18.4977 3.97153 18.7993 4.00123 19.0734 4.11476C19.3474 4.22828 19.5817 4.42054 19.7466 4.66722C19.9114 4.91389 19.9994 5.20391 19.9994 5.50059C19.9998 5.69768 19.9613 5.89293 19.886 6.07511C19.8108 6.25728 19.7003 6.42281 19.561 6.56219C19.4216 6.70156 19.2561 6.81204 19.0739 6.88726C18.8917 6.9625 18.6965 7.001 18.4993 7.00059ZM11.9995 8.00023C12.7907 8.00023 13.5641 8.23484 14.2219 8.67438C14.8797 9.11393 15.3925 9.73867 15.6952 10.4696C15.998 11.2006 16.0772 12.0049 15.9228 12.7808C15.7685 13.5568 15.3875 14.2695 14.8281 14.829C14.2686 15.3884 13.5559 15.7695 12.7799 15.9238C12.004 16.0781 11.1997 15.9989 10.4687 15.6962C9.73778 15.3933 9.11304 14.8806 8.67349 14.2228C8.23395 13.565 7.99934 12.7916 7.99934 12.0004C8.00047 10.9398 8.42229 9.92305 9.17222 9.17311C9.92216 8.42317 10.939 8.00136 11.9995 8.00023ZM11.9995 6.0004C10.8128 6.0004 9.6528 6.3523 8.6661 7.01159C7.67941 7.67088 6.91037 8.60795 6.45624 9.70432C6.00211 10.8007 5.8833 12.0071 6.1148 13.171C6.34632 14.3349 6.91777 15.4039 7.75688 16.243C8.59599 17.0821 9.66509 17.6537 10.829 17.8852C11.9929 18.1166 13.1993 17.9979 14.2956 17.5437C15.392 17.0896 16.3291 16.3206 16.9884 15.3339C17.6476 14.3472 17.9995 13.1872 17.9995 12.0004C17.9995 10.4091 17.3674 8.88299 16.2422 7.75777C15.1169 6.63255 13.5909 6.0004 11.9995 6.0004Z" fill="#274C5B"/>
</g>
</g>
</svg>
