<svg width="24" height="24" viewBox="0 0 24 24" fill="none" xmlns="http://www.w3.org/2000/svg">
<g id="Icons/Social/TW">
<path id="Vector" d="M24 4.3698C23.0997 4.77727 22.1472 5.04573 21.1724 5.16667C22.1968 4.54187 22.9672 3.54926 23.339 2.37501C22.3705 2.9649 21.3127 3.3788 20.2109 3.59897C19.7471 3.09247 19.189 2.68954 18.5709 2.41467C17.9529 2.13979 17.2875 1.99871 16.6155 2.00001C13.8944 2.00001 11.6925 4.26042 11.6925 7.04688C11.6905 7.43446 11.7332 7.8209 11.8195 8.19793C9.86833 8.10264 7.95775 7.58416 6.20998 6.67566C4.46221 5.76715 2.91574 4.48863 1.66949 2.92188C1.23228 3.68965 1.00106 4.56566 0.999998 5.45834C0.999998 7.20834 1.8765 8.75522 3.2 9.66146C2.41586 9.64208 1.64779 9.42589 0.960999 9.03125V9.09375C0.960999 11.5417 2.661 13.5781 4.911 14.0417C4.48789 14.1591 4.05188 14.2187 3.614 14.2188C3.30329 14.2193 2.99328 14.1879 2.6885 14.125C3.314 16.1302 5.1345 17.5886 7.29099 17.6302C5.53868 19.0369 3.3873 19.7973 1.175 19.7917C0.782308 19.7911 0.389982 19.7667 0 19.7187C2.25059 21.2157 4.86671 22.0076 7.53698 21.9999C16.605 21.9999 21.559 14.3072 21.559 7.63542C21.559 7.41668 21.5534 7.19792 21.5434 6.98438C22.5051 6.27191 23.3368 5.38653 24 4.3698Z" fill="#274C5B"/>
</g>
</svg>
