<svg width="24" height="24" viewBox="0 0 24 24" fill="none" xmlns="http://www.w3.org/2000/svg">
<g id="Icons">
<path id="Vector" d="M21 10.8319V19.5C20.9999 19.7719 20.9262 20.0386 20.7868 20.272C20.6475 20.5054 20.4476 20.6968 20.2084 20.8259C19.9917 20.9432 19.7485 21.0031 19.5021 20.9999H14.9968C14.7978 20.9999 14.6071 20.9209 14.4664 20.7803C14.3258 20.6396 14.2468 20.4488 14.2468 20.2499V15.7493C14.2468 15.5504 14.1677 15.3596 14.0271 15.2189C13.8864 15.0783 13.6957 14.9993 13.4968 14.9993H10.4968C10.2978 14.9993 10.1071 15.0783 9.96643 15.2189C9.82577 15.3596 9.74676 15.5504 9.74676 15.7493V20.2499C9.74676 20.4488 9.66774 20.6396 9.52709 20.7803C9.38644 20.9209 9.19567 20.9999 8.99676 20.9999H4.50023C4.28758 21.0005 4.07726 20.9556 3.88338 20.8682C3.68951 20.7808 3.51654 20.653 3.37607 20.4934C3.12949 20.2082 2.99574 19.8427 3.00004 19.4657V10.8318C3.0002 10.6228 3.04395 10.4162 3.12849 10.225C3.21302 10.0339 3.33649 9.86251 3.49101 9.7218L10.9904 2.90308C11.2658 2.65075 11.6258 2.51078 11.9994 2.51074C12.373 2.51071 12.733 2.65062 13.0085 2.90289L20.5092 9.72189C20.6636 9.86263 20.7871 10.034 20.8716 10.2252C20.9561 10.4163 20.9999 10.6229 21 10.8319Z" fill="#10B981"/>
</g>
</svg>
