<svg width="24" height="24" viewBox="0 0 24 24" fill="none" xmlns="http://www.w3.org/2000/svg">
<g id="Icons">
<path id="Vector" d="M13.8647 5.0018C14.1295 5.00135 14.3861 5.08254 14.59 5.2313C14.7048 5.31506 14.7996 5.41793 14.8692 5.53402C14.9387 5.65011 14.9815 5.77714 14.9952 5.90782C15.0089 6.03851 14.9932 6.17029 14.9489 6.29562C14.9047 6.42094 14.8328 6.53735 14.7374 6.63818L9.66033 11.9863L14.556 17.3444C14.6502 17.4465 14.7205 17.5639 14.7629 17.69C14.8053 17.8161 14.819 17.9482 14.8032 18.079C14.7874 18.2097 14.7424 18.3364 14.6708 18.4518C14.5992 18.5672 14.5025 18.669 14.386 18.7513C14.2688 18.8421 14.1315 18.9107 13.9827 18.9526C13.834 18.9945 13.677 19.0088 13.5216 18.9948C13.3663 18.9807 13.2159 18.9385 13.0799 18.8709C12.9439 18.8032 12.8253 18.7116 12.7315 18.6016L7.2578 12.6149C7.09112 12.4364 7 12.2124 7 11.9813C7 11.7502 7.09112 11.5263 7.2578 11.3477L12.9241 5.36101C13.0378 5.24026 13.1822 5.14481 13.3457 5.0824C13.5091 5.01999 13.6869 4.99238 13.8647 5.0018Z" fill="#10B981"/>
</g>
</svg>
